<svg width="32" height="32" viewBox="0 0 32 32" fill="none" xmlns="http://www.w3.org/2000/svg">
  <rect width="32" height="32" rx="8" fill="url(#gradient)"/>
  <path d="M16 6C16.5523 6 17 6.44772 17 7V11C17 11.5523 16.5523 12 16 12C15.4477 12 15 11.5523 15 11V7C15 6.44772 15.4477 6 16 6Z" fill="white"/>
  <path d="M22.5 9.5C22.8536 9.14645 23.3464 9.14645 23.7071 9.5C24.0607 9.85355 24.0607 10.3464 23.7071 10.7071L20.7071 13.7071C20.3536 14.0607 19.8607 14.0607 19.5 13.7071C19.1464 13.3536 19.1464 12.8607 19.5 12.5L22.5 9.5Z" fill="white"/>
  <path d="M26 15C26.5523 15 27 15.4477 27 16C27 16.5523 26.5523 17 26 17H22C21.4477 17 21 16.5523 21 16C21 15.4477 21.4477 15 22 15H26Z" fill="white"/>
  <circle cx="16" cy="16" r="3" fill="white"/>
  <path d="M8 20L12 16L16 20L20 16L24 20" stroke="white" stroke-width="2" stroke-linecap="round" stroke-linejoin="round"/>
  <defs>
    <linearGradient id="gradient" x1="0" y1="0" x2="32" y2="32" gradientUnits="userSpaceOnUse">
      <stop stop-color="#06B6D4"/>
      <stop offset="1" stop-color="#2563EB"/>
    </linearGradient>
  </defs>
</svg>